<svg xmlns="http://www.w3.org/2000/svg" viewBox="0 0 1000 550" preserveAspectRatio="xMidYMid meet">
  <defs>
    <linearGradient id="vGrad" x1="615" y1="260" x2="770" y2="30" gradientUnits="userSpaceOnUse">
      <stop offset="0%" stop-color="#ffffff"/>
      <stop offset="30%" stop-color="#ffffff"/>
      <stop offset="75%" stop-color="#f25e02"/>
      <stop offset="100%" stop-color="#ff7b1c"/>
    </linearGradient>
    
    <style>
      .subtext {
        font-family: 'Montserrat', 'Proxima Nova', 'Helvetica Neue', Arial, sans-serif;
        font-weight: 700;
        font-size: 42px; /* Increased for readability */
        fill: #ffffff;
        letter-spacing: 4px;
      }
      .tagline {
        font-family: 'Montserrat', 'Proxima Nova', 'Helvetica Neue', Arial, sans-serif;
        font-weight: 600;
        font-size: 28px; /* Increased for readability */
        fill: #f25e02;
        letter-spacing: 2px;
      }
    </style>
  </defs>

  <!-- Main 'AIV' Logo Mark -->
  <g transform="translate(35, 20)">
    <polygon points="160,260 280,70 400,260 330,260 267.5,161 205,260" fill="#ffffff" />
    <polygon points="241.6,210 288.4,210 301.1,230 229.0,230" fill="#f25e02" />
    <rect x="435" y="100" width="45" height="160" fill="#ffffff" />
    <polygon points="625,260 590,260 490,100 535,100 615,228" fill="#ffffff" />
    <path d="M 615 260 L 640 260 L 737 105 L 759 119 L 770 30 L 682 71 L 705 85 L 615 228 Z" fill="url(#vGrad)" />
  </g>

  <!-- Subtext -->
  <text x="500" y="385" text-anchor="middle" class="subtext">ANISH INDUSTRIAL VENTURES</text>

  <!-- Tagline -->
  <g transform="translate(0, 440)">
    <line x1="150" y1="-10" x2="300" y2="-10" stroke="#f25e02" stroke-width="3" />
    <text x="500" y="0" text-anchor="middle" class="tagline">POWERING WHAT'S NEXT.</text>
    <line x1="700" y1="-10" x2="850" y2="-10" stroke="#f25e02" stroke-width="3" />
  </g>
</svg>
